<?xml version="1.0" encoding="UTF-8" standalone="no"?>
<svg
   version="1.1"
   viewBox="0.00 0.00 1024.00 1024.00"
   id="svg4"
   sodipodi:docname="dab-bg.svg"
   inkscape:version="1.3 (0e150ed6c4, 2023-07-21)"
   xmlns:inkscape="http://www.inkscape.org/namespaces/inkscape"
   xmlns:sodipodi="http://sodipodi.sourceforge.net/DTD/sodipodi-0.dtd"
   xmlns="http://www.w3.org/2000/svg"
   xmlns:svg="http://www.w3.org/2000/svg">
  <defs
     id="defs4" />
  <sodipodi:namedview
     id="namedview4"
     pagecolor="#ffffff"
     bordercolor="#000000"
     borderopacity="0.25"
     inkscape:showpageshadow="2"
     inkscape:pageopacity="0.0"
     inkscape:pagecheckerboard="0"
     inkscape:deskcolor="#d1d1d1"
     inkscape:zoom="0.5489745"
     inkscape:cx="366.13722"
     inkscape:cy="651.21422"
     inkscape:window-width="1920"
     inkscape:window-height="991"
     inkscape:window-x="-9"
     inkscape:window-y="-9"
     inkscape:window-maximized="1"
     inkscape:current-layer="svg4" />
  <rect
     style="fill:#101030;fill-opacity:1;stroke-width:23.6422;stroke-linecap:round;stroke-linejoin:round"
     id="rect1"
     width="1024"
     height="1024"
     x="0"
     y="0" />
  <path
     id="path3"
     inkscape:label="dab"
     d="m 329.17229,320.1155 c -4.13,-35.82 20.42,-69.21 57,-72.76 q 32.1,-3.11 54.18,21.52 17.51,19.53 17.32,45.69 c -0.18,25.96 -11.29,50.79 -33.6,64.7 q -15.6,9.72 -34.43,8.29 -1.26,-0.1 -0.24,-0.85 17.51,-12.88 20.95,-15.43 c 8.15,-6.04 14.52,-14.92 10.85,-25.68 q -3.3,-9.69 -14.3,-11.82 -2.47,-0.48 -8.59,0.5 -7.4,1.19 -14.64,3.33 -20.84,6.15 -40.01,13.9 -0.45,0.19 -0.77,-0.2 -11.79,-14.45 -13.72,-31.19 z M 774.99901,191.56089 c -2.85,-0.0975 -5.88219,0.90485 -8.86719,2.21484 -4.07332,1.78 -15.93035,7.12575 -35.57031,16.03907 -17.21997,7.80998 -33.47972,16.74017 -50.67969,25.41015 -20.57329,10.37332 -41.18035,21.11406 -61.82031,32.22071 -7.61999,4.09999 -13.52853,7.18333 -17.72852,9.25 -42.11991,20.76662 -85.99142,36.26049 -131.61133,46.48046 -0.08,0.02 -0.11604,0.0653 -0.10937,0.13868 0.0333,7.88665 -1.0531,15.96382 -3.25977,24.23047 -1.27333,4.78665 -3.41016,9.88745 -6.41015,15.30078 -18.08997,32.71993 -52.25953,47.09919 -88.43946,36.69922 -0.31999,-0.0933 -0.61419,-0.0367 -0.88085,0.16992 -5.43333,4.29999 -10.79033,8.88644 -16.07032,13.75976 -7.10998,6.55999 -13.18985,15.2008 -18.33984,23.30078 -3.23999,5.07999 -7.39009,10.19931 -11.08008,12.7793 -4.83999,3.38666 -9.78962,6.21381 -14.84961,8.48047 -0.38666,0.18 -0.47929,0.0792 -0.2793,-0.30078 5.44666,-10.01331 11.22653,-19.83234 17.33985,-29.45899 10.14998,-15.96996 23.85862,-29.65119 38.80859,-40.70117 9.02665,-6.66665 21.50191,-15.45583 37.42188,-26.36914 3.50999,-2.40999 9.25999,-7.67907 5.5,-11.78906 -2.33,-2.55 -5.81165,-2.59055 -9.18164,-1.81055 -20.43996,4.74999 -41.29871,12.12885 -59.63868,22.54883 -25.09328,14.23997 -46.68795,32.23075 -64.78125,53.9707 -10.91997,13.12998 -29.67927,40.02925 -17.02929,55.94922 8.25998,10.38998 24.13026,11.26164 36.74023,9.43164 9.29332,-1.33999 17.66273,-3.03651 25.10938,-5.08984 20.99329,-5.78666 36.07978,-9.86071 45.25976,-12.2207 13.30998,-3.43 29.33964,-5.49062 42.34961,-1.14063 22.20996,7.41999 35.79008,27.48145 34.08008,50.94141 -0.79333,10.86664 -3.02279,21.46241 -6.68945,31.78906 -0.32667,0.90666 -0.89875,1.72761 -1.71875,2.46094 -47.40657,42.36658 -89.99008,88.87606 -127.75,139.52929 -3.6,4.82666 -7.49498,10.23715 -11.68164,16.23047 -18.0933,25.89328 -34.44839,51.70927 -49.06836,77.44922 -10.18998,17.94997 -15.95127,27.6705 -22.78125,42.23047 -0.11979,0.24217 0.06,0.52508 0.33008,0.51953 l 580.04101,0.24024 c 1.22,0 1.40836,-0.38373 0.56836,-1.15039 -0.15333,-0.14 -0.59675,-0.28612 -1.33008,-0.43946 -21.77329,-4.64665 -43.63655,-8.15287 -65.58984,-10.51953 -1.36667,-0.14667 -8.00351,-0.81839 -19.91016,-2.01172 -53.49989,-5.37999 -107.42297,-9.18969 -161.76953,-11.42969 -0.73333,-0.0333 -1.35271,-0.31627 -1.85937,-0.8496 -6.92999,-7.36999 -10.88033,-11.31955 -15.32032,-17.76954 -0.27123,-0.39526 -0.24229,-0.92172 0.0703,-1.27929 19.25329,-22.45996 38.14019,-44.05153 56.66015,-64.77149 13.80997,-15.44997 27.64964,-32.03979 39.84961,-47.50976 9.56998,-12.11998 20.21977,-26.53003 19.00977,-42.75 -0.94,-12.45998 -6.479,-22.55924 -14.45899,-31.44922 -7.47332,-8.33998 -16.39817,-16.17025 -26.77148,-23.49024 -14.55997,-10.26664 -29.64646,-18.57016 -45.25977,-24.91015 -0.70666,-0.28667 -1.04,-0.81651 -1,-1.58985 2.36,-40.44991 2.16007,-79.79992 -1.41992,-118.58984 -0.93333,-10.19331 -1.57945,-18.81777 -1.93945,-25.87109 -0.53,-10.41998 1.58079,-22.48916 7.05078,-31.36914 2.22666,-3.60666 5.21232,-7.30319 8.95898,-11.08985 6.18666,-6.25332 13.02002,-12.33048 20.5,-18.23047 16.9533,-13.3733 36.8433,-27.6974 59.66993,-42.9707 8.18665,-5.47332 13.70721,-9.20589 16.56054,-11.19922 14.98664,-10.47331 32.55879,-23.58964 52.71875,-39.34961 1.86,-1.45999 3.73133,-2.4476 5.61133,-2.96094 6.53999,-1.78666 13.34041,-4.1355 20.40039,-7.04882 5.05332,-2.08 8.95876,-5.42769 11.71875,-10.04102 2.33333,-3.88666 4.66357,-7.35993 6.99024,-10.41992 2.73999,-3.59999 6.55086,-7.58056 9.88085,-11.56055 3.8,-4.53999 4.99953,-9.08891 1.51954,-13.8789 -2.255,-3.09 -4.92345,-4.28727 -7.77344,-4.38477 z m -262.77344,428.6582 c 22.67499,0.37928 45.99816,7.94518 64.9375,19.42578 0.16054,0.0932 0.19873,0.3084 0.0801,0.45118 -12.31998,15.89997 -23.87661,32.63258 -34.66992,50.19922 -23.34662,37.97992 -44.67694,76.6107 -63.99024,115.89062 -0.10403,0.21467 -0.322,0.35061 -0.56054,0.34961 -17.33997,0.30667 -35.22067,1.03922 -53.64063,2.19922 -42.77991,2.69333 -83.19984,6.09451 -121.25976,10.20117 -11.48665,1.23333 -19.8766,2.34961 -25.16993,3.34961 -0.15065,0.0271 -0.28526,-0.0977 -0.26953,-0.25 0.62,-4.55999 1.05216,-8.58055 1.29883,-12.06055 0.30667,-4.34665 1.91675,-8.26024 4.83008,-11.74023 31.21327,-37.27993 64.85838,-72.84595 100.93164,-106.69922 18.71996,-17.56996 38.81871,-33.56026 60.38867,-47.99023 15.23997,-10.19998 33.24058,-19.8204 51.56055,-22.4004 5.10186,-0.71812 10.30051,-1.0133 15.5332,-0.92578 z"
     style="fill:#df8020;fill-opacity:1" />
</svg>
